<svg width="192" class="logo_name_svg__logo_name" height="37" viewBox="0 0 192 37" fill="none" xmlns="http://www.w3.org/2000/svg">
<path d="M10.504 14.9933C12.6834 12.3675 16.307 10.792 20.1669 10.792C21.3485 10.792 22.5039 10.9233 23.6067 11.2121V8.27125C22.5039 7.9299 21.3485 7.74609 20.1669 7.74609C15.1254 7.74609 10.9504 10.9233 10.504 14.9933Z" fill="#21C460"/>
<path d="M20.1669 28.5948C21.3485 28.5948 22.5039 28.411 23.6067 28.0697V25.1288C22.5039 25.4176 21.3485 25.5489 20.1669 25.5489C16.307 25.5489 12.7097 23.9472 10.504 21.3477C10.9504 25.4176 15.1254 28.5948 20.1669 28.5948Z" fill="#21C460"/>
<path d="M18.6705 0C8.63995 0 0.5 8.13995 0.5 18.1705C0.5 28.201 8.63995 36.3409 18.6705 36.3409C28.701 36.3409 36.8409 28.201 36.8409 18.1705C36.8409 8.13995 28.701 0 18.6705 0ZM25.445 13.8904L24.9724 13.6541C23.5282 12.9714 21.8477 12.6038 20.1672 12.6038C15.9922 12.6038 12.211 14.8882 10.9244 18.1705C12.211 21.4527 15.9922 23.7371 20.1672 23.7371C21.8477 23.7371 23.5019 23.3695 24.9724 22.6868L25.445 22.4505V29.3826L25.2349 29.4614C23.6332 30.0916 21.9264 30.4066 20.1672 30.4066C13.6815 30.4066 8.40363 25.9953 8.40363 20.5862C8.40363 19.7722 8.53492 18.932 8.77124 18.1442C8.53492 17.3565 8.40363 16.5425 8.40363 15.7022C8.40363 10.2931 13.6815 5.88178 20.1672 5.88178C21.9527 5.88178 23.6595 6.19687 25.2349 6.85331L25.445 6.93209V13.8904Z" fill="#21C460"/>
<path d="M53.2785 23.9209C51.5192 23.9209 50.1013 23.422 49.0509 22.4242C48.0006 21.4264 47.4755 19.9822 47.4755 18.0917V14.6519C47.4755 12.7613 48.0006 11.3171 49.0509 10.3193C50.1013 9.32154 51.5192 8.82263 53.2785 8.82263C55.0377 8.82263 56.4031 9.29527 57.3747 10.2668C58.3462 11.2384 58.8189 12.5512 58.8189 14.258V14.3893H56.3506V14.2055C56.3506 13.2865 56.0881 12.5513 55.5892 11.9473C55.0903 11.3696 54.3025 11.0546 53.2522 11.0546C52.2281 11.0546 51.4141 11.3696 50.8365 11.9998C50.2588 12.63 49.9437 13.4965 49.9437 14.5994V18.1179C49.9437 19.2208 50.2325 20.0873 50.8365 20.7175C51.4141 21.3477 52.2281 21.6627 53.2522 21.6627C54.3025 21.6627 55.0903 21.3739 55.5892 20.77C56.0881 20.1923 56.3506 19.4308 56.3506 18.5118V18.1704H58.7926V18.4593C58.7926 20.1398 58.32 21.4789 57.3484 22.4505C56.4031 23.422 55.0377 23.9209 53.2785 23.9209Z" fill="#21C460"/>
<path d="M65.6717 23.9209C64.6476 23.9209 63.7286 23.7109 62.9146 23.2907C62.1006 22.8706 61.4704 22.2667 60.9978 21.4789C60.5251 20.6912 60.3151 19.7722 60.3151 18.6694V18.328C60.3151 17.2252 60.5514 16.3062 60.9978 15.5184C61.4704 14.7307 62.1006 14.1267 62.9146 13.7066C63.7286 13.2865 64.6476 13.0764 65.6717 13.0764C66.6957 13.0764 67.6148 13.2865 68.4025 13.7066C69.2165 14.1267 69.8467 14.7307 70.2931 15.5184C70.7657 16.3062 70.9758 17.2514 70.9758 18.328V18.6694C70.9758 19.7722 70.7394 20.6912 70.2931 21.4789C69.8204 22.2667 69.1902 22.8706 68.4025 23.2907C67.6148 23.7109 66.6957 23.9209 65.6717 23.9209ZM65.6717 21.794C66.5382 21.794 67.2471 21.5052 67.7986 20.9538C68.35 20.4024 68.6388 19.6146 68.6388 18.5906V18.3805C68.6388 17.3827 68.35 16.595 67.7986 16.0173C67.2471 15.4659 66.5382 15.177 65.6717 15.177C64.8052 15.177 64.0962 15.4659 63.5448 16.0173C62.9934 16.5687 62.7045 17.3565 62.7045 18.3805V18.5906C62.7045 19.5884 62.9934 20.3761 63.5448 20.9538C64.0962 21.5315 64.8052 21.794 65.6717 21.794Z" fill="#21C460"/>
<path d="M74.0223 23.6321L72.4205 13.3915H74.7837L75.8866 22.0303H76.2279L77.7771 13.3915H81.5845L83.1338 22.0303H83.4751L84.5779 13.3915H86.9411L85.3394 23.6321H81.3745L79.8515 14.9932H79.5102L77.9609 23.6321H74.0223Z" fill="#21C460"/>
<path d="M88.4379 23.6321V13.3915H90.7748V14.5731H91.1162C91.2737 14.153 91.5363 13.8379 91.8776 13.6278C92.2453 13.444 92.6654 13.339 93.1643 13.339H94.3984V15.4659H93.1118C92.4291 15.4659 91.8514 15.6497 91.4313 16.0173C91.0111 16.3849 90.8011 16.9363 90.8011 17.6978V23.6321H88.4379Z" fill="#21C460"/>
<path d="M97.1291 27.7808V25.7064H102.801C103.195 25.7064 103.379 25.4964 103.379 25.0763V22.2141H103.037C102.932 22.4505 102.748 22.713 102.486 22.9494C102.249 23.1857 101.908 23.3957 101.488 23.5533C101.068 23.7108 100.543 23.7896 99.9125 23.7896C99.1248 23.7896 98.4158 23.6058 97.8119 23.2645C97.2079 22.9231 96.7353 22.4242 96.3939 21.7678C96.0526 21.1376 95.895 20.3761 95.895 19.5096V13.3652H98.2582V19.3258C98.2582 20.166 98.4683 20.77 98.8622 21.1638C99.2823 21.5577 99.86 21.7678 100.595 21.7678C101.435 21.7678 102.118 21.4789 102.591 20.9275C103.09 20.3761 103.326 19.5884 103.326 18.538V13.3652H105.689V25.5489C105.689 26.2316 105.505 26.7568 105.112 27.1506C104.718 27.5445 104.193 27.7546 103.536 27.7546H97.1291V27.7808Z" fill="#21C460"/>
<path d="M113.094 23.6321V9.11145H118.976C119.895 9.11145 120.682 9.29526 121.391 9.66287C122.074 10.0305 122.625 10.5294 123.019 11.1858C123.413 11.8423 123.623 12.63 123.623 13.5228V13.8116C123.623 14.7044 123.413 15.4659 123.019 16.1223C122.599 16.7788 122.048 17.3039 121.365 17.6453C120.656 18.0129 119.868 18.1967 119.002 18.1967H115.641V23.6321H113.094ZM115.615 15.9385H118.713C119.422 15.9385 120 15.7547 120.446 15.3608C120.892 14.967 121.102 14.4418 121.102 13.7591V13.549C121.102 12.8663 120.892 12.3412 120.472 11.9473C120.052 11.5534 119.474 11.3696 118.739 11.3696H115.641V15.9385H115.615Z" fill="#21C460"/>
<path d="M125.12 23.6321V13.3915H127.457V14.5731H127.798C127.956 14.153 128.218 13.8379 128.56 13.6278C128.927 13.444 129.348 13.339 129.846 13.339H131.081V15.4659H129.794C129.111 15.4659 128.534 15.6497 128.113 16.0173C127.693 16.3849 127.483 16.9363 127.483 17.6978V23.6321H125.12Z" fill="#21C460"/>
<path d="M137.698 23.9209C136.674 23.9209 135.755 23.7109 134.941 23.2907C134.127 22.8706 133.496 22.2667 133.024 21.4789C132.551 20.6912 132.341 19.7722 132.341 18.6694V18.328C132.341 17.2252 132.577 16.3062 133.024 15.5184C133.496 14.7307 134.127 14.1267 134.941 13.7066C135.755 13.2865 136.674 13.0764 137.698 13.0764C138.722 13.0764 139.641 13.2865 140.428 13.7066C141.242 14.1267 141.873 14.7307 142.319 15.5184C142.792 16.3062 143.002 17.2514 143.002 18.328V18.6694C143.002 19.7722 142.765 20.6912 142.319 21.4789C141.846 22.2667 141.216 22.8706 140.428 23.2907C139.641 23.7109 138.722 23.9209 137.698 23.9209ZM137.698 21.794C138.564 21.794 139.273 21.5052 139.825 20.9538C140.376 20.4024 140.665 19.6146 140.665 18.5906V18.3805C140.665 17.3827 140.376 16.595 139.825 16.0173C139.273 15.4396 138.564 15.177 137.698 15.177C136.831 15.177 136.122 15.4659 135.571 16.0173C135.019 16.5687 134.731 17.3565 134.731 18.3805V18.5906C134.731 19.5884 135.019 20.3761 135.571 20.9538C136.122 21.5315 136.831 21.794 137.698 21.794Z" fill="#21C460"/>
<path d="M148.7 23.6321C148.043 23.6321 147.518 23.422 147.124 23.0281C146.73 22.6343 146.52 22.1091 146.52 21.4264V15.3608H143.842V13.3915H146.52V10.083H148.91V13.3915H151.851V15.3608H148.91V21.0326C148.91 21.4527 149.093 21.6627 149.487 21.6627H151.535V23.6321H148.7Z" fill="#21C460"/>
<path d="M158.336 23.9209C157.312 23.9209 156.393 23.7109 155.579 23.2907C154.765 22.8706 154.135 22.2667 153.662 21.4789C153.189 20.6912 152.979 19.7722 152.979 18.6694V18.328C152.979 17.2252 153.216 16.3062 153.662 15.5184C154.135 14.7307 154.765 14.1267 155.579 13.7066C156.393 13.2865 157.312 13.0764 158.336 13.0764C159.36 13.0764 160.279 13.2865 161.067 13.7066C161.881 14.1267 162.511 14.7307 162.957 15.5184C163.43 16.3062 163.64 17.2514 163.64 18.328V18.6694C163.64 19.7722 163.404 20.6912 162.957 21.4789C162.485 22.2667 161.855 22.8706 161.067 23.2907C160.279 23.7109 159.36 23.9209 158.336 23.9209ZM158.336 21.794C159.202 21.794 159.911 21.5052 160.463 20.9538C161.014 20.4024 161.303 19.6146 161.303 18.5906V18.3805C161.303 17.3827 161.014 16.595 160.463 16.0173C159.911 15.4396 159.202 15.177 158.336 15.177C157.469 15.177 156.761 15.4659 156.209 16.0173C155.658 16.5687 155.369 17.3565 155.369 18.3805V18.5906C155.369 19.5884 155.658 20.3761 156.209 20.9538C156.761 21.5315 157.469 21.794 158.336 21.794Z" fill="#21C460"/>
<path d="M170.441 23.9209C169.443 23.9209 168.55 23.7109 167.736 23.2907C166.922 22.8706 166.292 22.2667 165.846 21.4789C165.373 20.6912 165.163 19.7459 165.163 18.6431V18.3543C165.163 17.2514 165.4 16.3062 165.846 15.5184C166.319 14.7307 166.949 14.1267 167.736 13.7066C168.55 13.2865 169.443 13.0764 170.441 13.0764C171.413 13.0764 172.253 13.2602 172.962 13.6016C173.671 13.9429 174.222 14.4156 174.642 15.0195C175.062 15.6234 175.351 16.3061 175.483 17.0414L173.172 17.514C173.119 17.0939 172.988 16.7 172.778 16.3324C172.568 15.991 172.279 15.7022 171.885 15.4921C171.518 15.2821 171.045 15.177 170.494 15.177C169.916 15.177 169.417 15.3083 168.971 15.5447C168.524 15.781 168.157 16.1486 167.92 16.6212C167.658 17.0939 167.526 17.6978 167.526 18.3543V18.5643C167.526 19.247 167.658 19.8247 167.92 20.2973C168.183 20.77 168.524 21.1376 168.971 21.3739C169.417 21.6102 169.916 21.7415 170.494 21.7415C171.334 21.7415 171.964 21.5315 172.41 21.0851C172.857 20.6387 173.119 20.0873 173.224 19.4046L175.535 19.956C175.378 20.665 175.062 21.3214 174.642 21.9253C174.222 22.5293 173.644 23.0019 172.962 23.3433C172.279 23.7371 171.439 23.9209 170.441 23.9209Z" fill="#21C460"/>
<path d="M182.31 23.9209C181.286 23.9209 180.367 23.7109 179.553 23.2907C178.739 22.8706 178.108 22.2667 177.636 21.4789C177.163 20.6912 176.953 19.7722 176.953 18.6694V18.328C176.953 17.2252 177.189 16.3062 177.636 15.5184C178.108 14.7307 178.739 14.1267 179.553 13.7066C180.367 13.2865 181.286 13.0764 182.31 13.0764C183.334 13.0764 184.253 13.2865 185.04 13.7066C185.854 14.1267 186.485 14.7307 186.931 15.5184C187.404 16.3062 187.614 17.2514 187.614 18.328V18.6694C187.614 19.7722 187.377 20.6912 186.931 21.4789C186.458 22.2667 185.828 22.8706 185.04 23.2907C184.253 23.7109 183.334 23.9209 182.31 23.9209ZM182.31 21.794C183.176 21.794 183.885 21.5052 184.437 20.9538C184.988 20.4024 185.277 19.6146 185.277 18.5906V18.3805C185.277 17.3827 184.988 16.595 184.437 16.0173C183.885 15.4396 183.176 15.177 182.31 15.177C181.443 15.177 180.734 15.4659 180.183 16.0173C179.631 16.5687 179.342 17.3565 179.342 18.3805V18.5906C179.342 19.5884 179.631 20.3761 180.183 20.9538C180.734 21.5315 181.443 21.794 182.31 21.794Z" fill="#21C460"/>
<path d="M189.111 23.6321V9.11145H191.5V23.6321H189.111Z" fill="#21C460"/>
</svg>
