<svg width="420" height="420" viewBox="0 0 420 420" fill="none" xmlns="http://www.w3.org/2000/svg">
<path d="M115.4 173.1C140.7 142.8 182.3 124.4 227 124.4C240.6 124.4 253.9 126.1 266.8 129.4V95.3C254.1 91.3 240.7 89.3 227 89.3C168.7 89.2 120.6 126.1 115.4 173.1Z" fill="#45B75F"/>
<path d="M227 330.4C240.7 330.4 254.1 328.4 266.8 324.4V290.3C253.9 293.6 240.6 295.3 227 295.3C182.3 295.3 140.7 276.9 115.4 246.6C120.6 293.5 168.7 330.4 227 330.4Z" fill="#45B75F"/>
<path d="M209.8 0C93.9 0 0 93.9 0 209.8C0 325.7 93.9 419.6 209.8 419.6C325.7 419.6 419.6 325.7 419.6 209.8C419.6 93.9 325.7 0 209.8 0ZM288 160.3L282.5 157.7C265.7 149.7 246.5 145.5 227 145.5C178.7 145.5 135 171.8 120.2 209.7C135 247.6 178.6 273.9 227 273.9C246.5 273.9 265.6 269.7 282.5 261.8L288 259.2V339.5L285.6 340.5C267.2 347.8 247.5 351.6 227 351.6C152 351.6 90.9 300.6 90.9 238C90.9 228.5 92.3 219 95.1 209.8C92.3 200.6 90.9 191.2 90.9 181.6C90.9 119 151.9 68 227 68C247.5 68 267.2 71.7 285.6 79.1L288 80.1V160.3Z" fill="#45B75F"/>
</svg>
