<svg width="90" class="pass_name_svg__logo_name" height="81" viewBox="0 0 90 81" fill="none" xmlns="http://www.w3.org/2000/svg">
<g clip-path="url(#clip0_346_1546)">
<g clip-path="url(#clip1_346_1546)">
<circle cx="1.5" cy="1.84094" r="1.5" fill="#D2D6DB" fill-opacity="0.3"/>
<circle cx="10.5" cy="1.84094" r="1.5" fill="#D2D6DB" fill-opacity="0.3"/>
<circle cx="19.5" cy="1.84094" r="1.5" fill="#D2D6DB" fill-opacity="0.3"/>
<circle cx="28.5" cy="1.84094" r="1.5" fill="#D2D6DB" fill-opacity="0.3"/>
<circle cx="37.5" cy="1.84094" r="1.5" fill="#D2D6DB" fill-opacity="0.3"/>
<circle cx="46.5" cy="1.84094" r="1.5" fill="#D2D6DB" fill-opacity="0.3"/>
<circle cx="55.5" cy="1.84094" r="1.5" fill="#D2D6DB" fill-opacity="0.3"/>
<circle cx="64.5" cy="1.84094" r="1.5" fill="#D2D6DB" fill-opacity="0.3"/>
<circle cx="73.5" cy="1.84094" r="1.5" fill="#D2D6DB" fill-opacity="0.3"/>
<circle cx="82.5" cy="1.84094" r="1.5" fill="#D2D6DB" fill-opacity="0.3"/>
</g>
<g clip-path="url(#clip2_346_1546)">
<circle cx="1.5" cy="10.8409" r="1.5" fill="#D2D6DB" fill-opacity="0.3"/>
<circle cx="10.5" cy="10.8409" r="1.5" fill="#D2D6DB" fill-opacity="0.3"/>
<circle cx="19.5" cy="10.8409" r="1.5" fill="#D2D6DB" fill-opacity="0.3"/>
<circle cx="28.5" cy="10.8409" r="1.5" fill="#D2D6DB" fill-opacity="0.3"/>
<circle cx="37.5" cy="10.8409" r="1.5" fill="#D2D6DB" fill-opacity="0.3"/>
<circle cx="46.5" cy="10.8409" r="1.5" fill="#D2D6DB" fill-opacity="0.3"/>
<circle cx="55.5" cy="10.8409" r="1.5" fill="#D2D6DB" fill-opacity="0.3"/>
<circle cx="64.5" cy="10.8409" r="1.5" fill="#D2D6DB" fill-opacity="0.3"/>
<circle cx="73.5" cy="10.8409" r="1.5" fill="#D2D6DB" fill-opacity="0.3"/>
<circle cx="82.5" cy="10.8409" r="1.5" fill="#D2D6DB" fill-opacity="0.3"/>
</g>
<g clip-path="url(#clip3_346_1546)">
<circle cx="1.5" cy="19.8409" r="1.5" fill="#D2D6DB" fill-opacity="0.3"/>
<circle cx="10.5" cy="19.8409" r="1.5" fill="#D2D6DB" fill-opacity="0.3"/>
<circle cx="19.5" cy="19.8409" r="1.5" fill="#D2D6DB" fill-opacity="0.3"/>
<circle cx="28.5" cy="19.8409" r="1.5" fill="#D2D6DB" fill-opacity="0.3"/>
<circle cx="37.5" cy="19.8409" r="1.5" fill="#D2D6DB" fill-opacity="0.3"/>
<circle cx="46.5" cy="19.8409" r="1.5" fill="#D2D6DB" fill-opacity="0.3"/>
<circle cx="55.5" cy="19.8409" r="1.5" fill="#D2D6DB" fill-opacity="0.3"/>
<circle cx="64.5" cy="19.8409" r="1.5" fill="#D2D6DB" fill-opacity="0.3"/>
<circle cx="73.5" cy="19.8409" r="1.5" fill="#D2D6DB" fill-opacity="0.3"/>
<circle cx="82.5" cy="19.8409" r="1.5" fill="#D2D6DB" fill-opacity="0.3"/>
</g>
<g clip-path="url(#clip4_346_1546)">
<circle cx="1.5" cy="28.8409" r="1.5" fill="#D2D6DB" fill-opacity="0.3"/>
<circle cx="10.5" cy="28.8409" r="1.5" fill="#D2D6DB" fill-opacity="0.3"/>
<circle cx="19.5" cy="28.8409" r="1.5" fill="#D2D6DB" fill-opacity="0.3"/>
<circle cx="28.5" cy="28.8409" r="1.5" fill="#D2D6DB" fill-opacity="0.3"/>
<circle cx="37.5" cy="28.8409" r="1.5" fill="#D2D6DB" fill-opacity="0.3"/>
<circle cx="46.5" cy="28.8409" r="1.5" fill="#D2D6DB" fill-opacity="0.3"/>
<circle cx="55.5" cy="28.8409" r="1.5" fill="#D2D6DB" fill-opacity="0.3"/>
<circle cx="64.5" cy="28.8409" r="1.5" fill="#D2D6DB" fill-opacity="0.3"/>
<circle cx="73.5" cy="28.8409" r="1.5" fill="#D2D6DB" fill-opacity="0.3"/>
<circle cx="82.5" cy="28.8409" r="1.5" fill="#D2D6DB" fill-opacity="0.3"/>
</g>
<g clip-path="url(#clip5_346_1546)">
<circle cx="1.5" cy="37.8409" r="1.5" fill="#D2D6DB" fill-opacity="0.3"/>
<circle cx="10.5" cy="37.8409" r="1.5" fill="#D2D6DB" fill-opacity="0.3"/>
<circle cx="19.5" cy="37.8409" r="1.5" fill="#D2D6DB" fill-opacity="0.3"/>
<circle cx="28.5" cy="37.8409" r="1.5" fill="#D2D6DB" fill-opacity="0.3"/>
<circle cx="37.5" cy="37.8409" r="1.5" fill="#D2D6DB" fill-opacity="0.3"/>
<circle cx="46.5" cy="37.8409" r="1.5" fill="#D2D6DB" fill-opacity="0.3"/>
<circle cx="55.5" cy="37.8409" r="1.5" fill="#D2D6DB" fill-opacity="0.3"/>
<circle cx="64.5" cy="37.8409" r="1.5" fill="#D2D6DB" fill-opacity="0.3"/>
<circle cx="73.5" cy="37.8409" r="1.5" fill="#D2D6DB" fill-opacity="0.3"/>
<circle cx="82.5" cy="37.8409" r="1.5" fill="#D2D6DB" fill-opacity="0.3"/>
</g>
<g clip-path="url(#clip6_346_1546)">
<circle cx="1.5" cy="46.8409" r="1.5" fill="#D2D6DB" fill-opacity="0.3"/>
<circle cx="10.5" cy="46.8409" r="1.5" fill="#D2D6DB" fill-opacity="0.3"/>
<circle cx="19.5" cy="46.8409" r="1.5" fill="#D2D6DB" fill-opacity="0.3"/>
<circle cx="28.5" cy="46.8409" r="1.5" fill="#D2D6DB" fill-opacity="0.3"/>
<circle cx="37.5" cy="46.8409" r="1.5" fill="#D2D6DB" fill-opacity="0.3"/>
<circle cx="46.5" cy="46.8409" r="1.5" fill="#D2D6DB" fill-opacity="0.3"/>
<circle cx="55.5" cy="46.8409" r="1.5" fill="#D2D6DB" fill-opacity="0.3"/>
<circle cx="64.5" cy="46.8409" r="1.5" fill="#D2D6DB" fill-opacity="0.3"/>
<circle cx="73.5" cy="46.8409" r="1.5" fill="#D2D6DB" fill-opacity="0.3"/>
<circle cx="82.5" cy="46.8409" r="1.5" fill="#D2D6DB" fill-opacity="0.3"/>
</g>
<g clip-path="url(#clip7_346_1546)">
<circle cx="1.5" cy="55.8409" r="1.5" fill="#D2D6DB" fill-opacity="0.3"/>
<circle cx="10.5" cy="55.8409" r="1.5" fill="#D2D6DB" fill-opacity="0.3"/>
<circle cx="19.5" cy="55.8409" r="1.5" fill="#D2D6DB" fill-opacity="0.3"/>
<circle cx="28.5" cy="55.8409" r="1.5" fill="#D2D6DB" fill-opacity="0.3"/>
<circle cx="37.5" cy="55.8409" r="1.5" fill="#D2D6DB" fill-opacity="0.3"/>
<circle cx="46.5" cy="55.8409" r="1.5" fill="#D2D6DB" fill-opacity="0.3"/>
<circle cx="55.5" cy="55.8409" r="1.5" fill="#D2D6DB" fill-opacity="0.3"/>
<circle cx="64.5" cy="55.8409" r="1.5" fill="#D2D6DB" fill-opacity="0.3"/>
<circle cx="73.5" cy="55.8409" r="1.5" fill="#D2D6DB" fill-opacity="0.3"/>
<circle cx="82.5" cy="55.8409" r="1.5" fill="#D2D6DB" fill-opacity="0.3"/>
</g>
<g clip-path="url(#clip8_346_1546)">
<circle cx="1.5" cy="64.8409" r="1.5" fill="#D2D6DB" fill-opacity="0.3"/>
<circle cx="10.5" cy="64.8409" r="1.5" fill="#D2D6DB" fill-opacity="0.3"/>
<circle cx="19.5" cy="64.8409" r="1.5" fill="#D2D6DB" fill-opacity="0.3"/>
<circle cx="28.5" cy="64.8409" r="1.5" fill="#D2D6DB" fill-opacity="0.3"/>
<circle cx="37.5" cy="64.8409" r="1.5" fill="#D2D6DB" fill-opacity="0.3"/>
<circle cx="46.5" cy="64.8409" r="1.5" fill="#D2D6DB" fill-opacity="0.3"/>
<circle cx="55.5" cy="64.8409" r="1.5" fill="#D2D6DB" fill-opacity="0.3"/>
<circle cx="64.5" cy="64.8409" r="1.5" fill="#D2D6DB" fill-opacity="0.3"/>
<circle cx="73.5" cy="64.8409" r="1.5" fill="#D2D6DB" fill-opacity="0.3"/>
<circle cx="82.5" cy="64.8409" r="1.5" fill="#D2D6DB" fill-opacity="0.3"/>
</g>
<g clip-path="url(#clip9_346_1546)">
<circle cx="1.5" cy="73.8409" r="1.5" fill="#D2D6DB" fill-opacity="0.3"/>
<circle cx="10.5" cy="73.8409" r="1.5" fill="#D2D6DB" fill-opacity="0.3"/>
<circle cx="19.5" cy="73.8409" r="1.5" fill="#D2D6DB" fill-opacity="0.3"/>
<circle cx="28.5" cy="73.8409" r="1.5" fill="#D2D6DB" fill-opacity="0.3"/>
<circle cx="37.5" cy="73.8409" r="1.5" fill="#D2D6DB" fill-opacity="0.3"/>
<circle cx="46.5" cy="73.8409" r="1.5" fill="#D2D6DB" fill-opacity="0.3"/>
<circle cx="55.5" cy="73.8409" r="1.5" fill="#D2D6DB" fill-opacity="0.3"/>
<circle cx="64.5" cy="73.8409" r="1.5" fill="#D2D6DB" fill-opacity="0.3"/>
<circle cx="73.5" cy="73.8409" r="1.5" fill="#D2D6DB" fill-opacity="0.3"/>
<circle cx="82.5" cy="73.8409" r="1.5" fill="#D2D6DB" fill-opacity="0.3"/>
</g>
</g>
<defs>
<clipPath id="clip0_346_1546">
<rect width="89.697" height="80" fill="white" transform="translate(0 0.340942)"/>
</clipPath>
<clipPath id="clip1_346_1546">
<rect width="100" height="9" fill="white" transform="translate(0 0.340942)"/>
</clipPath>
<clipPath id="clip2_346_1546">
<rect width="100" height="9" fill="white" transform="translate(0 9.34094)"/>
</clipPath>
<clipPath id="clip3_346_1546">
<rect width="100" height="9" fill="white" transform="translate(0 18.3409)"/>
</clipPath>
<clipPath id="clip4_346_1546">
<rect width="100" height="9" fill="white" transform="translate(0 27.3409)"/>
</clipPath>
<clipPath id="clip5_346_1546">
<rect width="100" height="9" fill="white" transform="translate(0 36.3409)"/>
</clipPath>
<clipPath id="clip6_346_1546">
<rect width="100" height="9" fill="white" transform="translate(0 45.3409)"/>
</clipPath>
<clipPath id="clip7_346_1546">
<rect width="100" height="9" fill="white" transform="translate(0 54.3409)"/>
</clipPath>
<clipPath id="clip8_346_1546">
<rect width="100" height="9" fill="white" transform="translate(0 63.3409)"/>
</clipPath>
<clipPath id="clip9_346_1546">
<rect width="100" height="9" fill="white" transform="translate(0 72.3409)"/>
</clipPath>
</defs>
</svg>
