<?xml version="1.0" standalone="no"?>
<!DOCTYPE svg PUBLIC "-//W3C//DTD SVG 20010904//EN"
 "http://www.w3.org/TR/2001/REC-SVG-20010904/DTD/svg10.dtd">
<svg version="1.0" xmlns="http://www.w3.org/2000/svg"
 width="1716.000000pt" height="1716.000000pt" viewBox="0 0 1716.000000 1716.000000"
 preserveAspectRatio="xMidYMid meet">
<metadata>
Created by potrace 1.14, written by Peter Selinger 2001-2017
</metadata>
<g transform="translate(0.000000,1716.000000) scale(0.100000,-0.100000)"
fill="#000000" stroke="none">
<path d="M8578 17156 c-1 -2 -106 -6 -233 -10 -230 -6 -342 -11 -445 -21 -30
-2 -84 -7 -120 -10 -36 -3 -76 -8 -90 -10 -14 -3 -56 -7 -95 -10 -38 -3 -81
-8 -95 -10 -43 -8 -83 -14 -130 -19 -25 -3 -54 -7 -65 -10 -11 -2 -41 -6 -66
-10 -50 -7 -75 -11 -164 -27 -33 -6 -71 -13 -85 -15 -14 -2 -36 -7 -50 -10
-14 -4 -34 -8 -45 -10 -150 -22 -567 -129 -865 -220 -229 -71 -621 -214 -775
-284 -22 -10 -73 -32 -114 -50 -227 -98 -628 -298 -753 -377 -21 -13 -40 -23
-42 -23 -3 0 -85 -49 -183 -108 -315 -191 -627 -407 -878 -608 -173 -137 -196
-157 -221 -179 -12 -11 -41 -36 -65 -57 -139 -116 -256 -225 -469 -438 -235
-235 -308 -313 -450 -480 -30 -36 -57 -67 -60 -70 -4 -3 -51 -61 -106 -130
-54 -69 -101 -127 -105 -130 -6 -5 -120 -160 -184 -250 -22 -30 -42 -57 -45
-60 -10 -9 -250 -371 -250 -377 0 -3 -11 -21 -25 -39 -14 -18 -25 -35 -25 -37
0 -3 -28 -51 -63 -108 -130 -213 -317 -570 -452 -864 -70 -153 -266 -645 -280
-705 -2 -8 -20 -62 -40 -120 -76 -221 -194 -651 -229 -835 -3 -11 -9 -40 -15
-65 -5 -25 -12 -57 -15 -73 -2 -15 -7 -35 -10 -45 -3 -9 -7 -33 -10 -52 -3
-19 -8 -45 -10 -58 -7 -31 -44 -256 -52 -307 -3 -22 -7 -51 -9 -65 -2 -14 -7
-52 -11 -85 -3 -33 -8 -68 -9 -77 -2 -9 -7 -48 -10 -85 -4 -37 -8 -79 -10 -93
-2 -14 -7 -63 -10 -110 -4 -47 -8 -101 -10 -120 -25 -268 -25 -987 0 -1240 3
-31 8 -96 20 -247 2 -24 6 -62 10 -85 3 -24 7 -59 10 -78 17 -147 25 -208 60
-410 32 -189 33 -196 46 -255 6 -27 13 -61 15 -75 99 -514 324 -1203 575
-1760 52 -117 242 -495 299 -595 28 -49 53 -98 57 -107 3 -10 9 -18 14 -18 5
0 9 -5 9 -11 0 -17 166 -288 290 -475 100 -151 162 -238 277 -394 26 -36 51
-69 55 -75 4 -5 21 -26 37 -45 16 -20 46 -58 68 -86 215 -286 636 -733 972
-1034 46 -41 89 -80 95 -85 6 -6 40 -35 76 -65 36 -30 67 -58 70 -61 3 -3 66
-54 140 -113 74 -59 142 -113 150 -119 37 -30 311 -228 360 -260 30 -20 80
-54 111 -75 43 -30 243 -155 369 -232 30 -18 216 -125 260 -149 25 -13 122
-64 215 -111 153 -79 229 -115 460 -220 268 -122 786 -306 1121 -399 273 -76
680 -167 869 -195 22 -4 65 -11 95 -16 30 -5 78 -12 105 -15 28 -3 59 -8 70
-10 25 -5 170 -23 250 -30 33 -3 74 -8 90 -10 17 -2 64 -7 105 -10 41 -3 98
-8 125 -10 285 -23 906 -23 1194 0 25 2 81 6 125 10 84 7 98 8 206 19 91 10
290 35 320 41 14 2 45 7 70 10 37 5 265 46 395 70 26 5 184 39 234 50 232 53
778 212 906 265 11 4 79 29 150 55 72 25 137 50 145 54 8 4 58 25 110 46 52
21 128 53 168 71 41 19 75 34 77 34 16 0 442 211 576 285 45 25 83 45 84 45 5
0 314 183 405 240 368 229 806 561 1164 880 230 205 545 527 757 771 319 369
585 735 856 1177 35 57 63 106 63 109 0 3 8 17 19 31 10 15 33 54 52 87 262
472 483 967 644 1445 48 143 139 438 150 485 2 11 11 45 20 75 9 30 18 66 21
80 3 14 18 78 34 142 34 136 109 516 124 623 2 11 7 45 11 75 4 30 9 64 11 75
3 11 7 43 10 71 2 28 6 61 9 72 2 12 7 52 10 89 4 37 9 82 11 98 2 17 6 64 10
105 3 41 7 93 9 115 27 273 26 1091 0 1315 -2 19 -7 69 -10 110 -3 41 -8 89
-9 105 -15 140 -18 168 -21 184 -2 10 -6 42 -9 72 -3 30 -8 65 -10 79 -3 14
-7 43 -11 65 -3 22 -10 69 -16 105 -6 36 -13 76 -15 90 -7 53 -74 380 -99 485
-14 61 -28 117 -30 125 -55 236 -217 749 -307 975 -22 55 -41 105 -42 110 -1
6 -4 15 -8 20 -4 6 -21 46 -38 90 -18 44 -40 98 -50 120 -10 22 -37 83 -60
135 -96 220 -314 634 -464 883 -11 18 -24 41 -30 52 -23 41 -276 423 -352 530
-140 197 -422 548 -579 720 -16 17 -53 57 -83 90 -141 154 -412 423 -571 565
-46 41 -89 80 -95 85 -6 6 -65 56 -131 110 -66 55 -122 102 -125 105 -3 3 -25
21 -50 40 -25 19 -50 39 -57 45 -29 24 -45 36 -173 131 -74 56 -196 142 -270
192 -74 50 -140 96 -147 102 -7 5 -17 10 -23 10 -5 0 -10 5 -10 10 0 6 -4 10
-10 10 -5 0 -47 24 -93 54 -250 161 -692 401 -977 530 -359 162 -752 311
-1083 411 -223 66 -670 179 -797 200 -19 3 -80 14 -135 25 -55 11 -118 22
-140 25 -22 3 -83 13 -135 21 -52 8 -113 17 -135 19 -22 3 -56 7 -75 10 -19 3
-55 7 -80 10 -25 3 -65 7 -90 10 -57 7 -115 12 -215 20 -44 3 -105 8 -135 10
-30 2 -163 7 -295 10 -132 4 -245 8 -252 10 -6 2 -13 2 -15 1z m1112 -2790
c58 -4 123 -8 145 -10 22 -2 78 -7 125 -11 47 -4 87 -8 90 -10 3 -2 37 -6 75
-9 39 -4 77 -9 85 -11 8 -2 38 -6 65 -10 28 -3 86 -12 130 -20 44 -8 94 -17
112 -20 190 -32 525 -119 768 -200 192 -63 472 -170 489 -186 9 -8 14 -3265 5
-3274 -2 -2 -58 23 -124 56 -66 33 -156 76 -200 95 -44 20 -93 42 -110 49 -80
37 -306 116 -525 183 -112 35 -394 103 -487 118 -19 3 -45 8 -57 10 -67 13
-204 36 -240 39 -22 2 -57 6 -76 9 -19 2 -64 7 -100 11 -36 3 -76 8 -90 10
-154 23 -725 23 -940 0 -19 -2 -65 -6 -102 -10 -37 -3 -75 -7 -85 -9 -10 -2
-45 -7 -78 -11 -32 -4 -68 -9 -80 -11 -11 -2 -40 -7 -65 -10 -25 -3 -119 -22
-210 -41 -188 -39 -174 -36 -260 -58 -36 -9 -69 -18 -75 -19 -11 -3 -14 -3
-190 -58 -590 -183 -1169 -492 -1620 -863 -488 -402 -846 -864 -1083 -1397
l-51 -116 25 -64 c53 -130 148 -317 223 -440 9 -14 30 -50 47 -80 139 -236
450 -597 722 -837 81 -71 272 -225 312 -250 14 -8 27 -18 30 -21 11 -12 79
-60 85 -60 3 0 30 -18 60 -40 30 -22 57 -40 60 -40 4 0 25 -13 48 -29 104 -70
367 -211 571 -305 231 -107 692 -267 864 -301 9 -1 44 -10 77 -18 33 -9 71
-18 85 -21 14 -2 59 -11 100 -20 41 -8 91 -18 110 -21 19 -3 60 -10 90 -15 30
-5 75 -12 100 -15 25 -3 56 -8 70 -10 14 -2 54 -7 90 -10 36 -4 81 -8 100 -10
253 -26 781 -26 1005 0 17 2 59 7 95 11 36 3 72 8 80 9 30 5 125 19 140 20 23
2 98 15 180 32 41 8 89 17 105 20 41 7 324 77 414 103 272 78 605 208 849 331
l112 57 1 -41 c3 -173 1 -3228 -2 -3230 -2 -2 -44 -18 -94 -36 -49 -19 -125
-46 -168 -62 -173 -63 -345 -116 -637 -194 -52 -14 -233 -54 -345 -76 -67 -13
-368 -59 -425 -65 -25 -2 -63 -6 -85 -9 -22 -3 -67 -8 -100 -10 -33 -3 -78 -7
-100 -10 -216 -23 -903 -23 -1047 0 -13 2 -60 6 -105 10 -45 3 -90 7 -100 9
-10 2 -49 7 -86 11 -77 7 -387 57 -497 80 -41 8 -86 17 -100 20 -14 2 -88 20
-165 40 -77 19 -148 37 -159 40 -148 36 -511 160 -731 250 -168 69 -468 214
-620 300 -111 63 -347 206 -355 215 -3 3 -41 30 -85 59 -166 111 -358 261
-539 421 -86 76 -329 320 -407 410 -41 46 -82 93 -92 105 -10 11 -37 45 -60
75 -23 30 -48 61 -55 69 -27 28 -181 251 -253 366 -152 242 -269 476 -369 740
-93 246 -174 545 -206 764 -4 25 -8 55 -11 66 -22 115 -37 336 -37 560 0 166
10 400 18 414 2 3 7 36 10 73 4 37 9 79 11 93 3 14 10 53 15 88 18 105 48 236
80 357 17 63 32 122 32 130 0 8 -14 65 -31 125 -41 149 -93 414 -107 545 -3
25 -7 56 -10 70 -18 105 -25 549 -11 705 4 44 9 100 12 124 3 42 14 119 21
166 2 11 6 38 9 60 9 62 64 312 86 390 117 411 274 763 504 1130 38 61 73 115
77 120 4 6 61 82 127 170 66 88 127 169 138 180 10 11 47 54 82 95 79 91 360
373 455 455 37 33 73 65 80 70 36 33 224 180 301 236 140 102 455 309 470 309
2 0 28 14 57 31 213 127 586 302 849 400 89 33 304 107 329 114 8 2 86 24 173
49 143 41 317 84 437 108 25 4 56 11 70 14 55 11 248 44 290 50 25 3 56 7 70
10 14 2 50 6 80 10 30 3 66 7 80 9 13 3 58 7 100 11 41 3 91 7 110 9 19 2 96
7 170 11 74 3 136 7 137 8 6 5 528 -2 623 -8z"/>
<path d="M9078 13495 c-2 -2 -59 -6 -128 -10 -146 -7 -199 -12 -350 -31 -61
-8 -289 -42 -320 -49 -14 -2 -50 -10 -80 -16 -272 -54 -754 -198 -905 -269
-11 -5 -48 -21 -83 -35 -412 -168 -841 -428 -1192 -720 -110 -92 -391 -370
-471 -465 -29 -36 -56 -67 -59 -70 -10 -10 -106 -136 -156 -205 -73 -102 -173
-264 -239 -388 -62 -117 -167 -347 -158 -347 3 0 1 -6 -5 -12 -16 -21 -91
-253 -123 -383 -28 -116 -54 -248 -65 -337 -3 -24 -7 -49 -9 -55 -7 -20 12
-15 28 7 68 97 359 390 552 555 38 33 75 65 82 71 34 32 332 251 423 311 109
72 277 174 390 238 96 54 476 238 545 265 33 13 65 27 70 30 6 4 42 19 80 33
39 14 102 37 140 52 403 149 949 286 1324 330 30 4 62 8 72 10 10 2 44 6 76
10 32 3 76 8 98 11 22 2 69 6 105 9 36 3 106 8 155 12 187 16 892 7 1005 -11
14 -3 61 -7 104 -11 44 -3 94 -8 110 -10 17 -2 69 -9 116 -15 92 -12 111 -15
233 -36 118 -20 397 -80 457 -99 14 -5 16 68 16 690 l0 695 -65 20 c-220 64
-579 144 -736 165 -47 6 -65 8 -147 19 -43 6 -116 14 -308 31 -63 6 -577 14
-582 10z"/>
<path d="M4736 7048 c28 -189 49 -293 83 -423 175 -677 589 -1311 1181 -1815
36 -30 67 -57 70 -60 3 -3 59 -47 126 -96 203 -153 414 -287 614 -391 58 -30
110 -58 115 -62 6 -5 83 -40 172 -80 187 -82 402 -164 553 -210 58 -18 126
-38 152 -46 106 -33 363 -92 528 -121 47 -8 96 -17 110 -19 14 -3 50 -7 80
-11 30 -3 64 -8 75 -10 11 -2 47 -7 80 -10 33 -3 74 -7 90 -9 163 -20 701 -27
905 -12 130 10 156 12 325 33 38 5 196 29 260 40 134 23 479 106 615 147 l45
14 0 692 c1 509 -2 691 -10 691 -7 0 -47 -9 -91 -20 -43 -11 -90 -23 -104 -25
-14 -2 -68 -13 -120 -24 -52 -11 -111 -23 -130 -26 -19 -3 -60 -10 -90 -15
-98 -16 -132 -21 -265 -36 -27 -3 -61 -7 -75 -9 -57 -8 -202 -19 -407 -30
-202 -12 -748 -4 -824 10 -9 2 -58 6 -107 10 -50 3 -99 8 -109 9 -10 2 -47 7
-83 11 -36 4 -72 8 -80 10 -17 3 -78 12 -135 20 -77 11 -348 62 -470 90 -521
117 -1136 354 -1615 622 -150 84 -404 242 -408 254 -2 5 -9 9 -16 9 -7 0 -21
8 -32 18 -10 10 -41 33 -69 52 -55 38 -207 150 -215 159 -3 3 -27 24 -55 46
-82 65 -120 98 -219 188 -147 134 -424 419 -434 448 -7 19 -19 8 -16 -13z"/>
</g>
</svg>
